<mxfile host="app.diagrams.net" modified="2022-11-25T12:18:24.508Z" agent="5.0 (Macintosh; Intel Mac OS X 10_15_7) AppleWebKit/537.36 (KHTML, like Gecko) Chrome/107.0.0.0 Safari/537.36" etag="gXvHbGOBvLLQl17KXTKY" version="20.6.0" type="github">
  <diagram id="prtHgNgQTEPvFCAcTncT" name="Page-1">
    <mxGraphModel dx="1298" dy="731" grid="1" gridSize="10" guides="1" tooltips="1" connect="1" arrows="1" fold="1" page="1" pageScale="1" pageWidth="827" pageHeight="1169" math="0" shadow="0">
      <root>
        <mxCell id="0" />
        <mxCell id="1" parent="0" />
        <mxCell id="pXBMeCZ5cxLHQ-ndRHX8-19" value="MMU" style="whiteSpace=wrap;html=1;aspect=fixed;" vertex="1" parent="1">
          <mxGeometry x="370" y="350" width="80" height="80" as="geometry" />
        </mxCell>
        <mxCell id="pXBMeCZ5cxLHQ-ndRHX8-21" value="Page" style="rhombus;whiteSpace=wrap;html=1;" vertex="1" parent="1">
          <mxGeometry x="370" y="490" width="80" height="80" as="geometry" />
        </mxCell>
        <mxCell id="pXBMeCZ5cxLHQ-ndRHX8-22" value="" style="endArrow=classic;html=1;rounded=0;entryX=0.5;entryY=1;entryDx=0;entryDy=0;" edge="1" parent="1" target="pXBMeCZ5cxLHQ-ndRHX8-19">
          <mxGeometry width="50" height="50" relative="1" as="geometry">
            <mxPoint x="410" y="490" as="sourcePoint" />
            <mxPoint x="460" y="440" as="targetPoint" />
          </mxGeometry>
        </mxCell>
        <mxCell id="pXBMeCZ5cxLHQ-ndRHX8-24" value="Virtual Memory" style="shape=cylinder3;whiteSpace=wrap;html=1;boundedLbl=1;backgroundOutline=1;size=15;" vertex="1" parent="1">
          <mxGeometry x="100" y="80" width="180" height="210" as="geometry" />
        </mxCell>
        <mxCell id="pXBMeCZ5cxLHQ-ndRHX8-25" value="Main Memory" style="shape=cylinder3;whiteSpace=wrap;html=1;boundedLbl=1;backgroundOutline=1;size=15;" vertex="1" parent="1">
          <mxGeometry x="550" y="80" width="170" height="200" as="geometry" />
        </mxCell>
        <mxCell id="pXBMeCZ5cxLHQ-ndRHX8-28" value="" style="endArrow=classic;html=1;rounded=0;entryX=1;entryY=1;entryDx=0;entryDy=-15;entryPerimeter=0;exitX=0;exitY=0;exitDx=0;exitDy=0;" edge="1" parent="1" source="pXBMeCZ5cxLHQ-ndRHX8-19" target="pXBMeCZ5cxLHQ-ndRHX8-24">
          <mxGeometry width="50" height="50" relative="1" as="geometry">
            <mxPoint x="390" y="400" as="sourcePoint" />
            <mxPoint x="440" y="350" as="targetPoint" />
          </mxGeometry>
        </mxCell>
        <mxCell id="pXBMeCZ5cxLHQ-ndRHX8-29" value="" style="endArrow=classic;html=1;rounded=0;entryX=0;entryY=1;entryDx=0;entryDy=-15;entryPerimeter=0;exitX=1;exitY=0;exitDx=0;exitDy=0;" edge="1" parent="1" source="pXBMeCZ5cxLHQ-ndRHX8-19" target="pXBMeCZ5cxLHQ-ndRHX8-25">
          <mxGeometry width="50" height="50" relative="1" as="geometry">
            <mxPoint x="500" y="350" as="sourcePoint" />
            <mxPoint x="410" y="265" as="targetPoint" />
          </mxGeometry>
        </mxCell>
        <mxCell id="pXBMeCZ5cxLHQ-ndRHX8-30" value="Table page" style="rounded=0;whiteSpace=wrap;html=1;" vertex="1" parent="1">
          <mxGeometry x="130" y="220" width="120" height="60" as="geometry" />
        </mxCell>
        <mxCell id="pXBMeCZ5cxLHQ-ndRHX8-31" value="Table page" style="rounded=0;whiteSpace=wrap;html=1;" vertex="1" parent="1">
          <mxGeometry x="575" y="210" width="120" height="60" as="geometry" />
        </mxCell>
      </root>
    </mxGraphModel>
  </diagram>
</mxfile>
